<svg width="485" height="376" viewBox="0 0 485 376" fill="none" xmlns="http://www.w3.org/2000/svg">
<mask id="mask0_2116_84" style="mask-type:alpha" maskUnits="userSpaceOnUse" x="243" y="163" width="242" height="214">
<path d="M480.378 257.961C475.25 245.956 461.674 230.264 461.674 230.264C461.674 230.264 455.623 222.278 452.712 216.598C450.882 213.026 449.765 211.013 448.648 207.157C447.523 203.275 447.505 200.948 447.033 196.934C446.3 190.694 446.148 187.152 446.147 180.869C446.146 174.565 447.033 164.752 447.033 164.752L243.106 163.656V326.394C243.106 326.394 253.216 338.733 260.82 345.484C267.522 351.434 271.639 354.415 279.212 359.202C284.819 362.746 288.035 364.676 294.061 367.443C299.96 370.152 303.366 371.572 309.64 373.233C316.486 375.046 320.481 375.932 327.563 375.998C331.274 376.032 333.369 375.876 337.046 375.372C340.984 374.832 343.257 374.58 346.997 373.233C350.568 371.947 352.573 371.029 355.646 368.8C358.384 366.813 359.528 365.216 361.898 362.801C369.575 354.979 372.629 349.479 379.509 340.946C383.435 336.077 389.564 328.48 389.564 328.48C389.564 328.48 397.126 321.325 402.85 318.048C408.867 314.604 412.756 313.593 419.419 311.685C426.778 309.577 438.697 308.138 438.697 308.138C438.697 308.138 449.521 306.124 456.369 303.87C461.774 302.091 469.603 297.768 469.603 297.768C474.452 294.787 475.749 294.306 478.659 290.978C481.658 287.548 483.153 285.169 484.286 280.754C485.415 276.355 485.041 273.602 484.286 269.123C483.518 264.568 482.192 262.208 480.378 257.961Z" fill="#F4F440"/>
</mask>
<g mask="url(#mask0_2116_84)">
<path d="M451.568 257.963C446.44 245.958 432.863 230.266 432.863 230.266C432.863 230.266 426.813 222.28 423.902 216.6C422.071 213.028 420.955 211.015 419.838 207.159C418.713 203.277 418.694 200.95 418.222 196.936C417.489 190.696 417.338 187.154 417.337 180.871C417.336 174.567 418.222 164.754 418.222 164.754L214.295 163.658V326.396C214.295 326.396 224.405 338.734 232.01 345.486C238.711 351.436 242.829 354.417 250.402 359.204C256.008 362.748 259.224 364.678 265.251 367.445C271.15 370.154 274.556 371.574 280.829 373.235C287.676 375.048 291.671 375.934 298.753 376C302.464 376.034 304.558 375.878 308.235 375.374C312.173 374.834 314.446 374.582 318.187 373.235C321.757 371.949 323.763 371.031 326.836 368.802C329.574 366.815 330.718 365.218 333.088 362.803C340.764 354.981 343.818 349.481 350.698 340.948C354.624 336.079 360.754 328.482 360.754 328.482C360.754 328.482 368.316 321.327 374.04 318.05C380.056 314.606 383.945 313.595 390.608 311.687C397.968 309.579 409.886 308.14 409.886 308.14C409.886 308.14 420.71 306.126 427.558 303.872C432.964 302.093 440.792 297.769 440.792 297.769C445.641 294.789 446.938 294.308 449.848 290.98C452.848 287.55 454.343 285.171 455.475 280.756C456.604 276.357 456.23 273.604 455.475 269.125C454.708 264.57 453.382 262.21 451.568 257.963Z" fill="#F4F440"/>
</g>
<mask id="mask1_2116_84" style="mask-type:alpha" maskUnits="userSpaceOnUse" x="213" y="0" width="243" height="213">
<path d="M451.245 118.041C446.117 130.046 432.54 145.738 432.54 145.738C432.54 145.738 426.489 153.724 423.578 159.404C421.748 162.976 420.632 164.989 419.514 168.845C418.39 172.727 418.371 175.054 417.899 179.068C417.166 185.308 417.015 188.85 417.013 195.133C417.012 201.437 417.899 211.25 417.899 211.25L213.972 212.346V49.608C213.972 49.608 224.082 37.2694 231.687 30.5177C238.388 24.5681 242.505 21.5873 250.079 16.7997C255.685 13.2556 258.901 11.3258 264.928 8.55852C270.826 5.85011 274.232 4.43022 280.506 2.76881C287.353 0.955719 291.348 0.06987 298.429 0.00436401C302.14 -0.0299683 304.235 0.126022 307.912 0.63028C311.85 1.17035 314.123 1.42157 317.863 2.76881C321.434 4.05501 323.44 4.97319 326.512 7.20238C329.251 9.18906 330.394 10.7856 332.765 13.2007C340.441 21.023 343.495 26.523 350.375 35.0556C354.301 39.9246 360.431 47.5217 360.431 47.5217C360.431 47.5217 367.993 54.6766 373.717 57.9536C379.733 61.3976 383.622 62.4088 390.285 64.317C397.644 66.4247 409.563 67.8639 409.563 67.8639C409.563 67.8639 420.387 69.8777 427.235 72.1318C432.64 73.911 440.469 78.2344 440.469 78.2344C445.318 81.2146 446.615 81.696 449.525 85.0244C452.524 88.4543 454.02 90.8325 455.152 95.2476C456.281 99.6473 455.907 102.4 455.152 106.879C454.385 111.434 453.059 113.794 451.245 118.041Z" fill="#F4F440"/>
</mask>
<g mask="url(#mask1_2116_84)">
<path d="M451.245 118.039C446.117 130.044 432.54 145.736 432.54 145.736C432.54 145.736 426.489 153.722 423.578 159.402C421.748 162.974 420.632 164.987 419.514 168.843C418.39 172.725 418.371 175.052 417.899 179.066C417.166 185.306 417.015 188.848 417.013 195.131C417.012 201.435 417.899 211.248 417.899 211.248L213.972 212.344V49.6061C213.972 49.6061 224.082 37.2675 231.687 30.5157C238.388 24.5662 242.505 21.5854 250.079 16.7978C255.685 13.2537 258.901 11.3238 264.928 8.55656C270.826 5.84816 274.232 4.42827 280.506 2.76686C287.353 0.953766 291.348 0.0679169 298.429 0.00241089C302.14 -0.0319214 304.235 0.124069 307.912 0.628326C311.85 1.1684 314.123 1.41962 317.863 2.76686C321.434 4.05305 323.44 4.97124 326.512 7.20042C329.251 9.1871 330.394 10.7837 332.765 13.1988C340.441 21.021 343.495 26.521 350.375 35.0536C354.301 39.9227 360.431 47.5197 360.431 47.5197C360.431 47.5197 367.993 54.6747 373.717 57.9516C379.733 61.3956 383.622 62.4068 390.285 64.3151C397.644 66.4228 409.563 67.8619 409.563 67.8619C409.563 67.8619 420.387 69.8757 427.235 72.1298C432.64 73.909 440.469 78.2325 440.469 78.2325C445.318 81.2126 446.615 81.694 449.525 85.0224C452.524 88.4523 454.02 90.8305 455.152 95.2457C456.281 99.6453 455.907 102.398 455.152 106.877C454.385 111.432 453.059 113.792 451.245 118.039Z" fill="#F4F440"/>
</g>
<mask id="mask2_2116_84" style="mask-type:alpha" maskUnits="userSpaceOnUse" x="0" y="0" width="242" height="213">
<path d="M4.62072 118.041C9.7486 130.046 23.3253 145.738 23.3253 145.738C23.3253 145.738 29.3759 153.724 32.2869 159.404C34.1175 162.976 35.2337 164.989 36.3509 168.845C37.4756 172.727 37.4945 175.054 37.966 179.068C38.699 185.308 38.8506 188.85 38.8518 195.133C38.8529 201.437 37.966 211.25 37.966 211.25L241.893 212.346L241.893 49.608C241.893 49.608 231.783 37.2694 224.179 30.5177C217.477 24.5681 213.36 21.5873 205.787 16.7997C200.18 13.2556 196.964 11.3257 190.938 8.5585C185.039 5.8501 181.633 4.43021 175.359 2.7688C168.513 0.955704 164.518 0.0698556 157.436 0.00435022C153.725 -0.0299817 151.63 0.126009 147.953 0.630267C144.015 1.17034 141.742 1.42156 138.002 2.7688C134.431 4.055 132.426 4.97318 129.353 7.20237C126.615 9.18905 125.471 10.7856 123.101 13.2007C115.424 21.023 112.37 26.523 105.49 35.0555C101.564 39.9246 95.4345 47.5217 95.4345 47.5217C95.4345 47.5217 87.8727 54.6766 82.1485 57.9536C76.1325 61.3976 72.243 62.4088 65.5801 64.317C58.2208 66.4247 46.3023 67.8639 46.3023 67.8639C46.3023 67.8639 35.4785 69.8777 28.6304 72.1318C23.2249 73.911 15.3965 78.2344 15.3965 78.2344C10.5472 81.2146 9.25047 81.696 6.34008 85.0244C3.34092 88.4543 1.84559 90.8325 0.713062 95.2476C-0.415491 99.6473 -0.041714 102.4 0.713063 106.879C1.48057 111.434 2.80657 113.794 4.62072 118.041Z" fill="#F4F440"/>
</mask>
<g mask="url(#mask2_2116_84)">
<path d="M33.4303 118.039C38.5582 130.044 52.1349 145.736 52.1349 145.736C52.1349 145.736 58.1855 153.722 61.0965 159.402C62.9271 162.974 64.0433 164.987 65.1604 168.843C66.2852 172.725 66.3041 175.052 66.7756 179.066C67.5086 185.306 67.6602 188.848 67.6613 195.131C67.6624 201.435 66.7756 211.248 66.7756 211.248L270.703 212.344L270.703 49.6061C270.703 49.6061 260.593 37.2674 252.988 30.5157C246.287 24.5662 242.169 21.5853 234.596 16.7978C228.99 13.2537 225.774 11.3238 219.747 8.55655C213.848 5.84814 210.442 4.42825 204.169 2.76685C197.322 0.953751 193.327 0.0679024 186.246 0.00239708C182.534 -0.0319349 180.44 0.124056 176.763 0.628313C172.825 1.16838 170.552 1.4196 166.811 2.76685C163.241 4.05304 161.235 4.97123 158.163 7.20041C155.424 9.18709 154.28 10.7837 151.91 13.1988C144.234 21.021 141.18 26.521 134.3 35.0536C130.374 39.9226 124.244 47.5197 124.244 47.5197C124.244 47.5197 116.682 54.6747 110.958 57.9516C104.942 61.3956 101.053 62.4068 94.3897 64.3151C87.0304 66.4228 75.1119 67.8619 75.1119 67.8619C75.1119 67.8619 64.2881 69.8757 57.4399 72.1298C52.0345 73.909 44.206 78.2325 44.206 78.2325C39.3567 81.2126 38.06 81.694 35.1496 85.0224C32.1505 88.4523 30.6552 90.8305 29.5226 95.2457C28.3941 99.6453 28.7679 102.398 29.5226 106.877C30.2901 111.432 31.6161 113.792 33.4303 118.039Z" fill="#F4F440"/>
</g>
<mask id="mask3_2116_84" style="mask-type:alpha" maskUnits="userSpaceOnUse" x="29" y="163" width="243" height="213">
<path d="M33.7545 257.959C38.8824 245.954 52.4591 230.262 52.4591 230.262C52.4591 230.262 58.5097 222.276 61.4207 216.596C63.2513 213.024 64.3675 211.011 65.4847 207.155C66.6094 203.273 66.6283 200.946 67.0998 196.932C67.8328 190.692 67.9844 187.15 67.9855 180.867C67.9867 174.563 67.0998 164.75 67.0998 164.75L271.027 163.654L271.027 326.392C271.027 326.392 260.917 338.731 253.312 345.482C246.611 351.432 242.494 354.413 234.92 359.2C229.314 362.744 226.098 364.674 220.071 367.441C214.173 370.15 210.767 371.57 204.493 373.231C197.646 375.044 193.651 375.93 186.57 375.996C182.859 376.03 180.764 375.874 177.087 375.37C173.149 374.83 170.876 374.578 167.136 373.231C163.565 371.945 161.559 371.027 158.487 368.798C155.748 366.811 154.605 365.214 152.235 362.799C144.558 354.977 141.504 349.477 134.624 340.944C130.698 336.075 124.568 328.478 124.568 328.478C124.568 328.478 117.007 321.323 111.282 318.046C105.266 314.602 101.377 313.591 94.7139 311.683C87.3546 309.575 75.4361 308.136 75.4361 308.136C75.4361 308.136 64.6123 306.122 57.7642 303.868C52.3588 302.089 44.5303 297.766 44.5303 297.766C39.681 294.785 38.3843 294.304 35.4739 290.976C32.4747 287.546 30.9794 285.168 29.8469 280.752C28.7183 276.353 29.0921 273.6 29.8469 269.121C30.6144 264.566 31.9404 262.206 33.7545 257.959Z" fill="#F4F440"/>
</mask>
<g mask="url(#mask3_2116_84)">
<path d="M33.7535 257.961C38.8814 245.956 52.4582 230.264 52.4582 230.264C52.4582 230.264 58.5087 222.278 61.4197 216.598C63.2503 213.026 64.3665 211.013 65.4837 207.157C66.6084 203.275 66.6273 200.948 67.0988 196.934C67.8318 190.694 67.9835 187.152 67.9846 180.869C67.9857 174.565 67.0988 164.752 67.0988 164.752L271.026 163.656L271.026 326.394C271.026 326.394 260.916 338.733 253.311 345.484C246.61 351.434 242.493 354.415 234.919 359.202C229.313 362.746 226.097 364.676 220.07 367.443C214.172 370.152 210.766 371.572 204.492 373.233C197.645 375.046 193.65 375.932 186.569 375.998C182.858 376.032 180.763 375.876 177.086 375.372C173.148 374.832 170.875 374.58 167.135 373.233C163.564 371.947 161.558 371.029 158.486 368.8C155.747 366.813 154.604 365.216 152.234 362.801C144.557 354.979 141.503 349.479 134.623 340.946C130.697 336.077 124.567 328.48 124.567 328.48C124.567 328.48 117.006 321.325 111.281 318.048C105.265 314.604 101.376 313.593 94.7129 311.685C87.3536 309.577 75.4352 308.138 75.4352 308.138C75.4352 308.138 64.6113 306.124 57.7632 303.87C52.3578 302.091 44.5293 297.768 44.5293 297.768C39.68 294.787 38.3833 294.306 35.4729 290.978C32.4737 287.548 30.9784 285.169 29.8459 280.754C28.7173 276.355 29.0911 273.602 29.8459 269.123C30.6134 264.568 31.9394 262.208 33.7535 257.961Z" fill="#F4F440"/>
</g>
<path d="M226.511 233.019H205.011C198.673 233.019 195.504 233.019 193.084 231.785C190.955 230.699 189.224 228.965 188.139 226.834C186.905 224.411 186.905 221.238 186.905 214.894V171.846C186.905 165.502 186.905 162.329 188.139 159.906C189.224 157.775 190.955 156.041 193.084 154.955C195.504 153.721 198.673 153.721 205.011 153.721H270.643C276.98 153.721 280.149 153.721 282.57 154.955C284.699 156.041 286.43 157.775 287.515 159.906C288.748 162.329 288.748 165.502 288.748 171.846V182.042M286.523 172.199L257.912 191.294C250.653 196.139 247.023 198.561 243.1 199.503C239.633 200.334 236.019 200.334 232.552 199.503C228.629 198.561 224.999 196.139 217.74 191.294L187.74 171.272M249.143 244.348L260.6 242.054C261.599 241.854 262.098 241.754 262.564 241.571C262.978 241.409 263.371 241.198 263.735 240.944C264.145 240.657 264.505 240.297 265.226 239.575L288.748 216.027C291.873 212.898 291.873 207.827 288.748 204.698C285.623 201.57 280.557 201.57 277.432 204.698L253.91 228.247C253.189 228.968 252.829 229.329 252.543 229.74C252.289 230.104 252.079 230.498 251.917 230.912C251.734 231.378 251.634 231.878 251.434 232.878L249.143 244.348Z" stroke="url(#paint0_linear_2116_84)" stroke-width="10.466" stroke-linecap="round" stroke-linejoin="round"/>
<defs>
<linearGradient id="paint0_linear_2116_84" x1="238.999" y1="153.721" x2="238.999" y2="244.348" gradientUnits="userSpaceOnUse">
<stop stop-color="#9F9F72"/>
<stop offset="1" stop-color="#1E1E1E"/>
</linearGradient>
</defs>
</svg>
