<svg width="86" height="91" viewBox="0 0 86 91" fill="none" xmlns="http://www.w3.org/2000/svg">
<path d="M50.5713 85.499C50.5713 88.119 47.2666 90.2431 43.19 90.2431C39.1134 90.2431 35.8087 88.1192 35.8087 85.499H50.5713Z" fill="#292929"/>
<path d="M10.7105 58.0791H43.1884H75.6662C75.6662 58.0791 81.5713 63.9842 81.5713 69.8893C81.5713 69.8893 60.9036 58.0791 56.4747 77.2706C55.5772 81.1604 54.9986 90.5569 43.1884 86.1282C31.3782 90.5569 30.7995 81.1604 29.902 77.2706C25.4733 58.0791 4.80545 69.8893 4.80545 69.8893C4.80562 63.9842 10.7105 58.0791 10.7105 58.0791Z" fill="#E8E8E8"/>
<path d="M35.6953 28.2394C35.6953 28.2394 13.5513 0.19043 6.17003 0.19043C1.7413 0.19043 9.12258 35.6208 13.5513 47.4308L35.6953 28.2394Z" fill="#292929"/>
<path d="M6.17003 0.19043C20.9328 10.5243 26.8379 35.6208 26.8379 35.6208L27.346 35.4755L35.6953 28.2395C35.6953 28.2395 13.5515 0.19043 6.17003 0.19043Z" fill="#F4F440"/>
<path d="M52.158 28.2394C52.158 28.2394 74.302 0.19043 81.6832 0.19043C86.112 0.19043 78.7307 35.6208 74.302 47.4308L52.158 28.2394Z" fill="#292929"/>
<path d="M81.6797 0.19043C66.9171 10.5243 61.012 35.6208 61.012 35.6208L60.5039 35.4755L52.1546 28.2395C52.1546 28.2395 74.2984 0.19043 81.6797 0.19043Z" fill="#F4F440"/>
<path d="M86 68.0984C86 68.0984 69.7611 57.7646 57.9511 65.1458C51.6918 69.058 53.5223 79.847 43.1885 79.847C32.8547 79.847 34.6853 69.058 28.426 65.1458C16.6158 57.7646 0.377037 68.0984 0.377037 68.0984C7.75831 41.5256 26.4914 23.8105 43.1885 23.8105C59.8856 23.8105 78.6187 41.5256 86 68.0984Z" fill="#F4F440"/>
<path d="M54.9986 60.7176C53.368 60.7176 52.0461 59.3957 52.0461 57.765C52.0461 56.1344 53.368 54.8125 54.9986 54.8125C56.6293 54.8125 57.9512 56.1344 57.9512 57.765C57.9512 59.3957 56.6293 60.7176 54.9986 60.7176Z" fill="#292929"/>
<path d="M31.3785 60.7176C29.7479 60.7176 28.426 59.3957 28.426 57.765C28.426 56.1344 29.7479 54.8125 31.3785 54.8125C33.0092 54.8125 34.3311 56.1344 34.3311 57.765C34.3311 59.3957 33.0092 60.7176 31.3785 60.7176Z" fill="#292929"/>
<path d="M38.0236 79.0175C38.0236 80.8009 40.337 83.5385 43.1905 83.5385C46.044 83.5385 48.3574 80.8009 48.3574 79.0175C48.3574 77.234 46.044 75.7881 43.1905 75.7881C40.337 75.7881 38.0236 77.234 38.0236 79.0175Z" fill="#292929"/>
</svg>
