<svg width="110" height="129" viewBox="0 0 110 129" fill="none" xmlns="http://www.w3.org/2000/svg">
<path fill-rule="evenodd" clip-rule="evenodd" d="M0.838867 0.295898L11.0248 115.707L55.1695 128.135L99.3124 115.707L109.502 0.295898L0.838867 0.295898ZM87.622 37.7006L55.1301 52.2279L55.0513 52.2619H55.1301H86.4752L82.8808 95.4822L55.1797 103.94L55.1301 103.924V103.94L27.2784 95.3265L25.4812 73.5606H25.5291H39.2564H39.3061L40.2047 84.8355L55.0034 88.743L55.1301 88.7054V88.7233L70.4526 84.2108L71.5018 66.0464L55.1301 65.9945L24.5826 65.8871L23.5351 52.2637L55.1301 38.5025L56.9718 37.7024H55.1301H22.3369L20.6886 23.7622H55.1301H88.9707L87.622 37.7006Z" fill="url(#paint0_linear_2078_170)"/>
<defs>
<linearGradient id="paint0_linear_2078_170" x1="0.838867" y1="64.2152" x2="109.502" y2="64.2152" gradientUnits="userSpaceOnUse">
<stop stop-color="#FFFF9B"/>
<stop offset="1" stop-color="#999999"/>
</linearGradient>
</defs>
</svg>
