<svg width="75" height="66" viewBox="0 0 75 66" fill="none" xmlns="http://www.w3.org/2000/svg">
<path d="M29.084 55.1681H14.9241C10.7503 55.1681 8.66337 55.1681 7.06918 54.3557C5.66687 53.6414 4.52677 52.5012 3.81229 51.099C3 49.5049 3 47.4178 3 43.2439V14.9241C3 10.7503 3 8.66337 3.81229 7.06918C4.52677 5.66687 5.66687 4.52677 7.06918 3.81229C8.66337 3 10.7503 3 14.9241 3H58.1491C62.3229 3 64.41 3 66.0041 3.81229C67.4063 4.52677 68.5466 5.66687 69.2609 7.06918C70.0732 8.66337 70.0732 10.7503 70.0732 14.9241V21.6315M68.6077 15.1562L49.7646 27.7183C44.9837 30.9054 42.5933 32.4992 40.0095 33.1185C37.726 33.6655 35.3457 33.6655 33.0626 33.1185C30.4788 32.4992 28.0883 30.9054 23.3073 27.7183L3.54948 14.5464M43.9892 62.6206L51.5349 61.1115C52.1926 60.98 52.5217 60.914 52.8283 60.7936C53.1007 60.6871 53.3597 60.5485 53.5993 60.3811C53.8698 60.1926 54.1068 59.9556 54.5815 59.4809L70.0732 43.9892C72.1313 41.9312 72.1313 38.5946 70.0732 36.5366C68.0152 34.4786 64.6787 34.4786 62.6206 36.5366L47.129 52.0283C46.6542 52.503 46.4172 52.74 46.2287 53.0105C46.0614 53.2501 45.9228 53.5091 45.8162 53.7815C45.6958 54.0882 45.6299 54.4172 45.4983 55.0749L43.9892 62.6206Z" stroke="url(#paint0_linear_2110_8)" stroke-width="5.32544" stroke-linecap="round" stroke-linejoin="round"/>
<defs>
<linearGradient id="paint0_linear_2110_8" x1="37.3084" y1="3" x2="37.3084" y2="62.6206" gradientUnits="userSpaceOnUse">
<stop stop-color="#FFFF9B"/>
<stop offset="1" stop-color="#999999"/>
</linearGradient>
</defs>
</svg>
