<svg width="60" height="58" viewBox="0 0 60 58" fill="none" xmlns="http://www.w3.org/2000/svg">
<path fill-rule="evenodd" clip-rule="evenodd" d="M25.9712 0.238783C15.4335 1.53658 5.79799 9.00289 1.9434 18.8573C0.479261 22.6006 0.0117336 25.2255 0.000589303 29.7663C-0.00816689 33.3662 0.0735576 34.1389 0.72868 36.6555C2.23475 42.4395 4.91175 47.057 9.02664 50.9674C11.8443 53.6451 13.92 55.0747 17.2482 56.6289C21.9763 58.8371 22.3891 58.6354 22.3891 54.116V51.0351L20.8674 51.2703C18.638 51.6151 16.0616 51.1243 14.4881 50.0554C13.5581 49.4234 12.9621 48.7066 12.1714 47.2681C10.6144 44.436 10.4385 44.2076 9.05582 43.2222C7.64395 42.2161 7.4622 41.6306 8.48296 41.3782C10.1907 40.9554 12.0465 42.1753 14.6693 45.4445C15.8092 46.865 17.2949 47.548 19.205 47.5294C21.3604 47.5085 22.4716 47.0376 22.6746 46.0598C22.7656 45.6205 23.1395 44.7329 23.5054 44.0876L24.1706 42.914L22.1522 42.5156C17.7844 41.6534 14.9546 40.0254 13.1227 37.3208C11.4656 34.874 10.8657 32.6332 10.8554 28.8507C10.8458 25.2744 11.2226 23.8277 12.7443 21.5979L13.664 20.2506L13.3684 18.5228C13.067 16.7609 13.2715 14.4891 13.8693 12.9585C14.0981 12.3731 14.3151 12.2391 15.0342 12.2391C16.3107 12.2391 18.8137 13.1359 20.7629 14.2916L22.4528 15.2938L24.0793 14.8891C26.3254 14.3301 33.5772 14.3301 35.8233 14.8891L37.4498 15.2938L39.1397 14.2916C41.0889 13.1359 43.5919 12.2391 44.8684 12.2391C45.8825 12.2391 46.0622 12.5455 46.5254 15.0641C46.7332 16.1937 46.7329 17.1454 46.5247 18.4694C46.237 20.2961 46.2399 20.3129 47.0399 21.4017C48.9682 24.0258 49.6227 27.9581 48.8246 32.1207C47.6826 38.075 43.9798 41.4708 37.3965 42.6011L35.7643 42.8813L36.5726 44.4883L37.3808 46.0956L37.5135 51.8058C37.6597 58.0941 37.6753 58.148 39.305 57.9141C40.4964 57.743 44.7901 55.7026 46.8229 54.3415C50.2527 52.0451 53.8159 48.2376 56.0546 44.4771C59.1084 39.3466 60.5359 32.4806 59.8168 26.3812C57.8618 9.80338 42.7966 -1.83308 25.9712 0.238783Z" fill="url(#paint0_linear_2078_155)"/>
<defs>
<linearGradient id="paint0_linear_2078_155" x1="0" y1="29" x2="60" y2="29" gradientUnits="userSpaceOnUse">
<stop stop-color="#FFFF9B"/>
<stop offset="1" stop-color="#999699"/>
</linearGradient>
</defs>
</svg>
