<svg width="109" height="129" viewBox="0 0 109 129" fill="none" xmlns="http://www.w3.org/2000/svg">
<path fill-rule="evenodd" clip-rule="evenodd" d="M0 0.295898L9.88923 115.354L54.2647 128.135L98.7644 115.338L108.663 0.297822L0 0.295898ZM88.035 27.601L87.4155 34.7543L87.1428 37.925H87.1002H54.3314H54.2851H35.0871L36.3298 52.376H54.2832H54.3314H82.239H85.9058L85.5738 56.1663L82.3763 93.3202L82.1723 95.7021L54.3314 103.706L54.2684 103.727L26.4034 95.7021L24.4987 73.5436H30.7916H38.1529L39.1211 84.8008L54.2702 89.0432L54.2832 89.0394L69.4565 84.7893L71.0348 66.4884H54.3314H54.2851H23.8885L20.5463 27.601L20.2217 23.8127H54.2851H54.3314H88.3614L88.035 27.601Z" fill="url(#paint0_linear_2078_171)"/>
<defs>
<linearGradient id="paint0_linear_2078_171" x1="0" y1="64.2152" x2="108.663" y2="64.2152" gradientUnits="userSpaceOnUse">
<stop stop-color="#FFFF9B"/>
<stop offset="1" stop-color="#999999"/>
</linearGradient>
</defs>
</svg>
