<svg width="59" height="58" viewBox="0 0 59 58" fill="none" xmlns="http://www.w3.org/2000/svg">
<g filter="url(#filter0_i_2078_154)">
<path fill-rule="evenodd" clip-rule="evenodd" d="M25.5496 0.282363C18.6143 1.29474 13.6413 3.78402 8.43233 8.85061C-0.426427 17.4673 -2.5832 31.651 3.28949 42.6794C5.46636 46.7674 11.4708 52.6891 15.5886 54.8076C20.6188 57.3958 24.7695 58.2442 30.9262 57.9416C37.3505 57.626 41.1722 56.4006 46.1696 53.0542C61.4389 42.8283 63.4158 21.5152 50.2874 8.65584C43.6399 2.14412 34.347 -1.00134 25.5496 0.282363ZM34.4559 4.16419C48.5844 7.1128 57.7071 20.4971 54.7999 34.0127C52.1576 46.2966 41.975 54.4452 29.2671 54.4452C19.1073 54.4452 10.4897 48.9448 5.97092 39.5766C4.33086 36.176 4.03151 34.9636 3.81308 30.8454C3.37569 22.6042 5.6557 16.7314 11.5622 10.8863C15.9424 6.55192 22.8041 3.69289 29.3395 3.47938C30.2122 3.45125 32.5144 3.75903 34.4559 4.16419ZM18.7032 15.3379C17.7978 15.881 16.4888 17.1106 15.7944 18.0698C14.5975 19.7217 14.5235 20.2826 14.3891 28.667C14.2537 37.0759 14.3077 37.6242 15.4575 39.5928C16.1265 40.7385 17.6089 42.1898 18.7725 42.8387C20.7066 43.9172 21.5502 44.0131 29.1729 44.0214C37.7852 44.0303 39.5855 43.7079 41.6862 41.7816C44.1302 39.5412 44.603 37.8966 44.8437 30.7969C45.18 20.8856 44.2688 17.9141 40.1303 15.43C38.495 14.4484 37.5075 14.3494 29.3395 14.3494C21.4417 14.3494 20.1486 14.4697 18.7032 15.3379ZM38.6124 17.7396C41.3377 19.1275 41.7682 20.7221 41.7682 29.4299V37.2748L39.9589 39.2204L38.1501 41.1655L30.0424 41.3139C22.6301 41.4493 21.785 41.3702 20.1846 40.3911C17.3472 38.6554 16.8082 36.6166 17.0044 28.3681C17.1546 22.048 17.308 21.0122 18.2838 19.7196C20.1444 17.2559 21.3233 16.9658 29.4982 16.9574C35.2355 16.9517 37.4351 17.1402 38.6124 17.7396ZM36.1563 20.2982C35.6295 21.6496 36.3673 22.7661 37.6673 22.5844C38.541 22.462 38.8594 22.0704 38.8594 21.1158C38.8594 20.1612 38.541 19.7696 37.6673 19.6472C36.9517 19.5472 36.3472 19.8076 36.1563 20.2982ZM26.0626 22.6245C20.21 26.2454 21.6316 34.7637 28.2939 35.9942C30.8722 36.4707 32.5287 35.9359 34.7865 33.8987C36.6312 32.2338 36.7438 31.9504 36.7438 28.9763C36.7438 26.0381 36.61 25.6887 34.8113 23.917C32.3488 21.4928 28.7514 20.9611 26.0626 22.6245ZM32.9698 25.6132C35.2868 27.8952 34.7584 31.5021 31.8866 33.0087C28.8662 34.5923 24.844 32.2619 24.844 28.9274C24.844 27.8067 25.3348 26.8016 26.3899 25.7627C28.4378 23.7462 31.014 23.6879 32.9698 25.6132Z" fill="url(#paint0_linear_2078_154)"/>
</g>
<defs>
<filter id="filter0_i_2078_154" x="0" y="0" width="59" height="62" filterUnits="userSpaceOnUse" color-interpolation-filters="sRGB">
<feFlood flood-opacity="0" result="BackgroundImageFix"/>
<feBlend mode="normal" in="SourceGraphic" in2="BackgroundImageFix" result="shape"/>
<feColorMatrix in="SourceAlpha" type="matrix" values="0 0 0 0 0 0 0 0 0 0 0 0 0 0 0 0 0 0 127 0" result="hardAlpha"/>
<feOffset dy="4"/>
<feGaussianBlur stdDeviation="2.5"/>
<feComposite in2="hardAlpha" operator="arithmetic" k2="-1" k3="1"/>
<feColorMatrix type="matrix" values="0 0 0 0 0 0 0 0 0 0 0 0 0 0 0 0 0 0 0.25 0"/>
<feBlend mode="normal" in2="shape" result="effect1_innerShadow_2078_154"/>
</filter>
<linearGradient id="paint0_linear_2078_154" x1="0" y1="29" x2="59" y2="29" gradientUnits="userSpaceOnUse">
<stop stop-color="#FFFF9B"/>
<stop offset="1" stop-color="#999699"/>
</linearGradient>
</defs>
</svg>
