<svg width="129" height="129" viewBox="0 0 129 129" fill="none" xmlns="http://www.w3.org/2000/svg">
<g clip-path="url(#clip0_2103_3)">
<path d="M129.326 -0.296875H-0.298828V128.728H129.326V-0.296875Z" fill="url(#paint0_linear_2103_3)"/>
<path d="M78.4023 107.015L87.946 100.729C88.6941 103.068 93.4305 108.623 99.4131 108.623C105.396 108.623 108.173 105.37 108.173 103.214C108.173 97.3376 102.064 95.2658 99.1303 94.271C98.6516 94.1088 98.2581 93.9751 97.9886 93.8585C97.8502 93.7986 97.6414 93.7189 97.3734 93.6171C94.1101 92.3761 82.0703 87.7976 82.0703 74.5256C82.0703 59.9076 96.2433 58.2266 99.4488 58.2266C101.545 58.2266 111.627 58.4823 116.649 67.8744L107.39 74.3067C105.36 70.2134 101.988 68.8614 99.9117 68.8614C94.7837 68.8614 93.7152 72.6031 93.7152 74.3067C93.7152 79.0862 99.2867 81.2284 103.991 83.0371C105.222 83.5103 106.393 83.9605 107.39 84.4296C112.518 86.8415 120.067 90.7887 120.067 103.214C120.067 109.437 114.823 119.513 101.621 119.513C83.8864 119.513 79.1856 108.915 78.4023 107.015Z" fill="#2D2C2C"/>
<path d="M32.1074 108.262L42.0547 101.98C42.8339 104.317 45.8629 108.628 50.2572 108.628C54.6519 108.628 56.9014 104.135 56.9014 101.98V59.6084H69.1347V101.98C69.3329 107.824 66.0765 119.513 51.7048 119.513C38.4914 119.513 32.9982 111.696 32.1074 108.262Z" fill="#2D2C2C"/>
</g>
<defs>
<linearGradient id="paint0_linear_2103_3" x1="-0.298828" y1="64.2154" x2="129.326" y2="64.2154" gradientUnits="userSpaceOnUse">
<stop stop-color="#FFFF9B"/>
<stop offset="1" stop-color="#999999"/>
</linearGradient>
<clipPath id="clip0_2103_3">
<rect width="128.43" height="128.43" fill="white"/>
</clipPath>
</defs>
</svg>
