<svg width="58" height="58" viewBox="0 0 58 58" fill="none" xmlns="http://www.w3.org/2000/svg">
<path fill-rule="evenodd" clip-rule="evenodd" d="M21.6141 0.594152C16.583 2.04545 12.3437 4.577 8.54431 8.39861C-0.594341 17.5907 -2.59183 31.0882 3.47016 42.6908C5.91281 47.3667 11.5992 52.8587 16.3682 55.1482C32.4831 62.8837 51.6896 54.2453 56.8779 36.9283C60.2829 25.5632 55.7318 12.3173 46.0292 5.35302C40.7885 1.59143 36.6679 0.235622 29.8593 0.0326169C26.0408 -0.0816711 23.3122 0.104122 21.6141 0.594152ZM36.4978 4.53265C40.4984 5.77573 45.4465 8.96848 48.0739 12.0021C50.6914 15.0242 53.4064 20.9405 54.0954 25.1248C56.0254 36.8381 48.5911 49.0925 37.1551 53.0503C24.3188 57.4924 10.3514 50.8574 5.16829 37.8562C3.58898 33.8958 3.23306 26.6205 4.41702 22.5234C7.02466 13.5003 13.7668 6.60341 22.2907 4.23832C26.0724 3.18886 32.6076 3.32402 36.4978 4.53265ZM16.9587 13.4377C14.5549 15.3394 15.7441 18.6183 18.8379 18.6183C21.6956 18.6183 22.9766 14.7972 20.6641 13.1684C19.1507 12.1018 18.5961 12.1419 16.9587 13.4377ZM16.1104 30.3602V39.4928H18.7045H21.2987V30.3602V21.2276H18.7045H16.1104V30.3602ZM25.1598 21.9008C25.0187 22.2713 24.9673 26.322 25.0467 30.9029L25.1899 39.2319L27.9137 39.3895L30.6376 39.5476V33.8958C30.6376 27.4409 31.2285 25.9243 33.7428 25.9243C36.4557 25.9243 36.8635 26.918 36.8635 33.5284V39.4928H39.4577H42.0518L42.1213 34.6656C42.2547 25.439 41.7535 22.9852 39.4862 21.7651C37.7435 20.8268 33.5145 21.1149 32.0524 22.2713C31.3271 22.8453 30.595 23.315 30.4259 23.315C30.2573 23.315 30.1188 22.8453 30.1188 22.2713C30.1188 21.381 29.7727 21.2276 27.7679 21.2276C26.3266 21.2276 25.3175 21.488 25.1598 21.9008Z" fill="url(#paint0_linear_2078_153)"/>
<defs>
<linearGradient id="paint0_linear_2078_153" x1="0" y1="29" x2="58" y2="29" gradientUnits="userSpaceOnUse">
<stop stop-color="#FFFF9B"/>
<stop offset="1" stop-color="#999699"/>
</linearGradient>
</defs>
</svg>
