<svg width="144" height="129" viewBox="0 0 144 129" fill="none" xmlns="http://www.w3.org/2000/svg">
<path d="M72.143 112.602C82.4449 122.619 92.5987 128.543 100.783 128.543C103.466 128.543 106.005 127.978 108.117 126.711C115.452 122.476 118.134 111.894 115.594 96.798C115.172 94.1156 114.607 91.4386 113.899 88.6135C116.719 87.7688 119.259 86.9185 121.798 86.0737C136.05 80.5717 143.949 72.9522 143.949 64.6306C143.949 56.1664 136.05 48.5469 121.798 43.1875C119.259 42.2001 116.719 41.3554 113.899 40.6477C114.607 37.8282 115.172 35.1457 115.594 32.4633C117.991 17.0872 115.314 6.36294 107.975 2.12808C105.857 0.860912 103.317 0.295898 100.641 0.295898C92.5987 0.295898 82.2968 6.22031 72.0004 16.237C61.8411 6.22031 51.6818 0.295898 43.5028 0.295898C40.8204 0.295898 38.2806 0.860912 36.1686 2.12808C28.8344 6.36294 26.152 16.9446 28.6918 32.0409C29.1142 34.7233 29.6792 37.4003 30.3869 40.2253C27.5673 41.0701 25.0275 41.9204 22.4876 42.7652C8.23613 48.2672 0.336914 55.8866 0.336914 64.2083C0.336914 72.6725 8.23613 80.2919 22.4876 85.6513C25.0275 86.6387 27.5673 87.4835 30.3869 88.1912C29.6792 91.0107 29.1142 93.6932 28.6918 96.3756C26.2946 111.472 28.9716 122.196 36.1686 126.288C38.2861 127.561 40.8259 128.121 43.5028 128.121C51.6873 128.4 61.8466 122.476 72.143 112.602ZM64.2383 93.556C66.7781 93.6987 69.4605 93.6987 72.1375 93.6987C74.8145 93.6987 77.4969 93.6987 80.0367 93.556C77.4969 96.9406 74.8145 100.045 72.1375 103.008C69.4551 100.045 66.7781 96.9406 64.2383 93.556ZM46.7448 79.0248C48.1546 81.422 49.4273 83.682 50.9797 85.9366C46.6077 85.3716 42.5154 84.6639 38.5658 83.8191C39.8385 80.0122 41.2483 76.0571 42.9378 72.1075C44.0679 74.362 45.335 76.7647 46.7448 79.0193V79.0248ZM38.5603 45.0197C42.51 44.175 46.6022 43.4673 50.9742 42.9023C49.5644 45.1624 48.1546 47.4169 46.7393 49.8141C45.3241 52.2113 44.0569 54.4714 42.9323 56.8686C41.1002 52.7763 39.6849 48.8322 38.5603 45.0197ZM46.3224 64.3509C48.1546 60.5439 50.1294 56.7314 52.3895 52.9244C54.5069 49.2546 56.9041 45.5902 59.3013 41.9204C63.5361 41.6406 67.7655 41.498 72.143 41.498C76.6576 41.498 80.8925 41.6406 84.9847 41.9204C87.5245 45.5902 89.7791 49.2546 91.8965 52.9244C94.1566 56.7314 96.1314 60.5439 97.9635 64.3509C96.1314 68.1579 94.1566 71.9703 91.8965 75.7773C89.7791 79.4472 87.3819 83.1115 84.9847 86.7814C80.7498 87.0611 76.5205 87.2037 72.143 87.2037C67.6284 87.2037 63.3935 87.0611 59.3013 86.7814C56.7615 83.1115 54.5069 79.4472 52.3895 75.7773C50.1294 71.9648 48.1546 68.1579 46.3224 64.3509ZM101.491 56.7314L97.6838 49.677C96.274 47.2798 95.0013 45.0197 93.4489 42.7652C97.8209 43.3302 101.913 44.0378 105.863 44.8826C104.596 48.8322 103.18 52.7763 101.491 56.7314ZM101.491 71.9703C103.186 75.9199 104.596 79.8695 105.863 83.682C101.913 84.5268 97.8209 85.2344 93.4489 85.7994C94.8587 83.5394 96.2685 81.2848 97.6838 78.8876C98.9564 76.7702 100.224 74.373 101.491 71.9758V71.9703ZM104.733 120.929C103.603 121.637 102.193 121.916 100.641 121.916C93.7287 121.916 85.1218 116.272 76.6576 107.808C80.7498 103.436 84.6994 98.493 88.6491 92.991C95.2811 92.426 101.628 91.4386 107.558 90.0288C108.265 92.5686 108.688 95.1084 109.11 97.6483C111.085 109.64 109.527 118.247 104.733 120.929ZM112.072 46.5722C127.876 51.0868 137.328 57.9986 137.328 64.3509C137.328 69.8529 130.839 75.3549 119.412 79.7324C117.152 80.5772 114.618 81.4274 112.078 82.1296C110.246 76.3423 107.986 70.4179 105.166 64.3509C107.986 58.2838 110.383 52.3594 112.072 46.5722ZM100.783 6.78533C102.336 6.78533 103.603 7.06509 104.875 7.77273C109.533 10.4552 111.222 18.9194 109.247 31.0535C108.825 33.4507 108.26 35.9905 107.695 38.6729C101.771 37.4003 95.4182 36.4129 88.7862 35.7107C84.9792 30.2087 80.887 25.2717 76.7948 20.8942C85.259 12.5671 93.8713 6.78533 100.783 6.78533ZM80.0422 35.1457C77.5024 35.0031 74.82 35.0031 72.143 35.0031C69.466 35.0031 66.7836 35.0031 64.2438 35.1457C66.7836 31.7611 69.466 28.6563 72.143 25.6941C74.8254 28.6563 77.5024 31.9037 80.0422 35.1457ZM39.5477 7.77273C40.6778 7.06509 42.0876 6.78533 43.64 6.78533C50.5518 6.78533 59.1586 12.43 67.6229 20.8942C63.5306 25.2662 59.581 30.2032 55.6314 35.7107C48.9994 36.2757 42.6526 37.2631 36.7227 38.6729C36.015 36.1331 35.5927 33.5933 35.1703 31.0535C33.1955 19.062 34.7534 10.5978 39.5477 7.77273ZM32.2135 82.1296C16.4096 77.615 6.95799 70.7032 6.95799 64.3509C6.95799 58.8488 13.4474 53.3468 24.8739 48.9748C27.1339 48.1301 29.6682 47.2798 32.2081 46.5776C34.0402 52.3649 36.3003 58.2893 39.1199 64.3564C36.3003 70.4234 33.8976 76.4904 32.2081 82.1351L32.2135 82.1296ZM35.1757 97.6483C35.5981 95.2511 36.1632 92.7113 36.7282 90.0288C42.6526 91.3015 49.0049 92.2889 55.6369 92.991C59.4439 98.493 63.5361 103.43 67.6284 107.808C59.1641 116.129 50.5573 121.916 43.6455 121.916C42.0931 121.916 40.8259 121.637 39.5532 120.929C34.7534 118.247 33.2064 109.64 35.1812 97.6483H35.1757Z" fill="url(#paint0_linear_2078_175)"/>
<defs>
<linearGradient id="paint0_linear_2078_175" x1="0.336914" y1="64.4194" x2="143.949" y2="64.4194" gradientUnits="userSpaceOnUse">
<stop stop-color="#FFFF9B"/>
<stop offset="1" stop-color="#999699"/>
</linearGradient>
</defs>
</svg>
