<svg width="79" height="68" viewBox="0 0 79 68" fill="none" xmlns="http://www.w3.org/2000/svg">
<path d="M66.8114 9.86018C63.2261 6.72123 58.9586 4.23308 54.2573 2.54035C49.5555 0.847624 44.5134 -0.0158035 39.4243 0.000218969C32.621 0.00599895 25.9385 1.56506 20.0465 4.52127C14.1545 7.47747 9.2597 11.7271 5.85225 16.8444C2.4448 21.9618 0.644393 27.7675 0.631189 33.6797C0.618033 39.5923 2.39262 45.4037 5.77723 50.5326L0.299805 68L20.8401 63.325C26.512 66.0671 32.8851 67.5287 39.3754 67.575C49.693 67.5754 59.5929 64.0339 66.92 57.7218C74.2475 51.4102 78.4093 42.8384 78.4998 33.8726C78.4656 29.3987 77.4151 24.9746 75.4095 20.8541C73.4039 16.7335 70.4817 12.9975 66.8114 9.86018ZM39.4243 61.7525C33.6422 61.7559 27.9657 60.4053 22.992 57.8425L21.8183 57.205L9.64077 60.01L12.8685 49.6826L12.086 48.6201C7.92541 42.7836 6.37261 35.8234 7.72181 29.0583C9.07102 22.2933 13.2285 16.1933 19.4067 11.9139C25.585 7.63442 33.3546 5.47275 41.244 5.83838C49.1335 6.20396 56.595 9.07147 62.2143 13.8977C68.3568 19.1175 71.8731 26.2375 71.9954 33.7026C71.9181 41.1652 68.4522 48.2992 62.3522 53.5526C56.2527 58.8056 48.0121 61.753 39.4243 61.7525ZM57.0792 40.7576C56.1011 40.3326 51.3572 38.2926 50.4769 38.0376C49.5966 37.7826 48.9119 37.6126 48.2762 38.4626C47.3196 39.602 46.2906 40.6943 45.1951 41.7351C44.6572 42.3301 44.0703 42.3726 43.0922 41.7351C37.5155 39.8201 32.8694 36.2926 29.9366 31.7476C28.9096 30.2601 30.9147 30.3451 32.7731 27.1577C32.9105 26.9277 32.9819 26.6727 32.9819 26.4139C32.9819 26.1551 32.9105 25.9001 32.7731 25.6702C32.7731 25.2451 30.5724 21.0801 29.7899 19.4226C29.0074 17.7652 28.2249 18.0201 27.5891 17.9776H25.6818C25.1876 17.9842 24.7007 18.0825 24.2538 18.2657C23.8068 18.4489 23.4099 18.7129 23.0898 19.0401C21.9925 19.9674 21.1366 21.0883 20.5798 22.3273C20.023 23.5662 19.7783 24.8945 19.862 26.2227C20.1687 29.4021 21.5465 32.4323 23.8234 34.9351C27.9911 40.3573 33.7028 44.7496 40.4024 47.6851C43.9162 49.4675 47.9999 50.213 52.0419 49.8101C53.3878 49.578 54.6627 49.1025 55.7832 48.414C56.9041 47.7259 57.8455 46.8402 58.5463 45.8151C59.1958 44.5639 59.4002 43.1729 59.1332 41.8201C58.6931 41.3951 58.0573 41.1826 57.0792 40.7576Z" fill="url(#paint0_linear_2110_10)"/>
<defs>
<linearGradient id="paint0_linear_2110_10" x1="39.3998" y1="0" x2="39.3998" y2="68" gradientUnits="userSpaceOnUse">
<stop stop-color="#FFFF9B"/>
<stop offset="1" stop-color="#999999"/>
</linearGradient>
</defs>
</svg>
